# xmcd
#
# Track frame offsets: 
#        150
#        17299
#        29739
#        48596
#        66032
#        76428
#        88545
#        109265
#        125023
#        147761
#        162395
#        181847
#        194153
#        205281
#        223972
#        241837
#
# Disc length: 3469 seconds
#
# Revision: 0
# Processed by: cddbd v1.5.2PL0 Copyright (c) Steve Scherf et al.
# Submitted via: ExactAudioCopy v1.1
#
DISCID=eb0d8b10
DTITLE=Various Artist - 27. Blues Baltica Bluesfest 2016
DYEAR=2016
DGENRE=Sampler Blues
TTITLE0=Mississipi Bigfoot - The Hunter
TTITLE1=Lisa Lystam Family Band - Big Town Man
TTITLE2=Chris Grey and The BlueSpand - Why Won't You
TTITLE3=Big Mama Montse - Come On, Take A Little Walk
TTITLE4=Dani Dorchin - Show Me The Way
TTITLE5=Gruff! - The Morning
TTITLE6=Jason Richie - Snowflakes And Horses
TTITLE7=Well Bad - Poor Mary
TTITLE8=Jersey Julie - The Promise
TTITLE9=4 Some Blues - Walt's Boogie
TTITLE10=Joey Gilmore - Letting A Good Think Go Bad
TTITLE11=Monkey Junk - Running In The Rain
TTITLE12=Tito Lausteen Quartet - Movin'
TTITLE13=Travellin' Brothers - On What A Shame
TTITLE14=Tommie Harris and Kai Strauss - Soul Fixin' Man
TTITLE15=Zakija Hooker - Crossroads
EXTD=
EXTT0=
EXTT1=
EXTT2=
EXTT3=
EXTT4=
EXTT5=
EXTT6=
EXTT7=
EXTT8=
EXTT9=
EXTT10=
EXTT11=
EXTT12=
EXTT13=
EXTT14=
EXTT15=
PLAYORDER=
